FFmpeg version SVN-r25716, Copyright (c) 2000-2010 the FFmpeg developers  built on Nov 10 2010 12:23:18 with gcc 4.1.2 20080704 (Red Hat 4.1.2-48)  configuration: --enable-libmp3lame --enable-shared --disable-mmx --arch=x86_64  libavutil     50.33. 0 / 50.33. 0  libavcore      0.12. 1 /  0.12. 1  libavcodec    52.94. 4 / 52.94. 4  libavformat   52.84. 0 / 52.84. 0  libavdevice   52. 2. 2 / 52. 2. 2  libavfilter    1.59. 0 /  1.59. 0  libswscale     0.12. 0 /  0.12. 0Input #0, avi, from '/RAID10/data/converted_video_files/25612.avi':  Duration: 00:00:10.00, start: 0.000000, bitrate: 8791 kb/s    Stream #0.0: Video: rawvideo, pal8, 264x416, 10 tbr, 10 tbn, 10 tbc    Metadata:      title           : Video[buffer @ 0x1be96990] w:264 h:416 pixfmt:pal8[ffsink @ 0x1be97d80] auto-inserting filter 'auto-inserted scaler 0' between the filter 'src' and the filter 'out'[scale @ 0x1be980a0] w:264 h:416 fmt:pal8 -> w:264 h:416 fmt:yuv420p flags:0x4Output #0, flv, to '/RAID10/data/converted_video_files/25612.flv':  Metadata:    encoder         : Lavf52.84.0    Stream #0.0: Video: flv, yuv420p, 264x416, q=2-31, 600 kb/s, 1k tbn, 24 tbc    Metadata:      title           : VideoStream mapping:  Stream #0.0 -> #0.0Press [q] to stop encodingframe=   67 fps=  0 q=3.1 size=     353kB time=6.62 bitrate= 436.4kbits/s    frame=  100 fps=  0 q=3.1 Lsize=     532kB time=9.96 bitrate= 437.4kbits/s    video:530kB audio:0kB global headers:0kB muxing overhead 0.333499%